<?xml version="1.0" encoding="utf-8"?>
<!-- Generator: Adobe Illustrator 25.2.3, SVG Export Plug-In . SVG Version: 6.00 Build 0)  -->
<svg version="1.1" id="图层_1" xmlns="http://www.w3.org/2000/svg" xmlns:xlink="http://www.w3.org/1999/xlink" x="0px" y="0px"
	 viewBox="0 0 887.4 272.68" style="enable-background:new 0 0 887.4 272.68;" xml:space="preserve">
<style type="text/css">
	.st0{fill:#FFFFFF;}
</style>
<g>
	<g>
		<g>
			<circle class="st0" cx="721.85" cy="98.16" r="13.5"/>
			<circle class="st0" cx="504.54" cy="98.16" r="13.5"/>
		</g>
		<g>
			<g>
				<path class="st0" d="M666.96,38.43H561.22c-2.09,0-3.79,1.7-3.79,3.79V154.1c0,2.09,1.7,3.79,3.79,3.79h105.74c1.1,0,2-0.89,2-2
					v-14.31c0-1.1-0.89-2-2-2h-85.89c-2.09,0-3.79-1.7-3.79-3.79V60.53c0-2.09,1.69-3.79,3.79-3.79h85.89c1.1,0,2-0.89,2-2V40.43
					C668.95,39.33,668.06,38.43,666.96,38.43z"/>
				<path class="st0" d="M606.27,132.96l16.32-20.69c0.26-0.33,0.74-0.33,1,0l16.32,20.69c0.38,0.49,0.96,0.77,1.57,0.77h21.01
					c0.54,0,0.84-0.65,0.5-1.08L635.4,97.67c-0.38-0.48-0.38-1.16,0-1.64l25.53-32.36c0.34-0.43,0.04-1.08-0.5-1.08h-21.66
					c-0.19,0-0.38,0.09-0.5,0.24l-14.67,18.6c-0.26,0.33-0.74,0.33-1,0l-14.67-18.6c-0.12-0.15-0.3-0.24-0.5-0.24h-21.66
					c-0.54,0-0.84,0.65-0.5,1.08l25.53,32.36c0.38,0.48,0.38,1.16,0,1.64l-27.59,34.97c-0.34,0.43-0.04,1.08,0.5,1.08h21.01
					C605.31,133.73,605.88,133.44,606.27,132.96z"/>
			</g>
			<path class="st0" d="M450.27,66.53h-12.4c-0.45,0-0.74-0.49-0.53-0.89l13.09-25.2c0.55-1.06-0.2-2.34-1.38-2.34l-52.46-0.16
				c-1.18,0-2.26,0.69-2.81,1.8l-4.6,9.28l-4.27,8.7c-0.53,1.07,0.24,2.33,1.42,2.33h18.38c0.21,0,0.4-0.12,0.5-0.31l2.87-5.77
				c0.21-0.42,0.63-0.68,1.09-0.68h15.89c0.27,0,0.44,0.3,0.3,0.54l-7.07,12.12c-0.21,0.35-0.58,0.57-0.99,0.57h-32.49
				c-0.88,0-1.59,0.72-1.59,1.61v88.15c0,1.15,0.92,2.09,2.06,2.09h64.45c1.05,0,1.9-0.86,1.9-1.93v-14.59
				c0-1.07-0.85-1.93-1.9-1.93h-48.69c-0.64,0-1.15-0.52-1.15-1.17v-9.19c0-0.65,0.52-1.17,1.15-1.17h49.05
				c0.85,0,1.54-0.7,1.54-1.56V84.99V67.93C451.65,67.16,451.03,66.53,450.27,66.53z M434.98,113.24c0,0.61-0.49,1.11-1.09,1.11
				H401.3c-0.77,0-1.39-0.63-1.39-1.42V85.51c0-0.29,0.23-0.52,0.52-0.52l8.72,0c0.28,0,0.52,0.23,0.52,0.52v21.32
				c0,0.86,0.68,1.55,1.53,1.55h12.52c0.84,0,1.53-0.69,1.53-1.55V85.51c0-0.29,0.23-0.52,0.52-0.52h8.71
				c0.28,0,0.52,0.23,0.52,0.52V113.24z"/>
			<g>
				<path class="st0" d="M839.3,59.82v-4.5c0-0.35,0.28-0.64,0.62-0.64h34.71c0.76,0,1.37-0.64,1.37-1.42V39.13
					c0-0.67-0.53-1.22-1.18-1.22H786.2c-0.65,0-1.18,0.55-1.18,1.22v14.14c0,0.78,0.61,1.42,1.37,1.42h34.71
					c0.34,0,0.62,0.29,0.62,0.64v4.5c0,0.35-0.28,0.64-0.62,0.64h-44.98c-0.76,0-1.37,0.64-1.37,1.42v28.89
					c0,0.67,0.53,1.22,1.18,1.22h13.71c0.65,0,1.18-0.55,1.18-1.22V77.2c0-1.19,0.93-2.15,2.07-2.15h28.23c0.33,0,0.6,0.28,0.6,0.62
					v3.06c0,0.37-0.16,0.72-0.44,0.95l-7.84,6.48c-0.16,0.13-0.39,0.01-0.39-0.19v-3.87c0-0.67-0.53-1.22-1.18-1.22h-13.45
					c-0.65,0-1.18,0.55-1.18,1.22v16.67c0,0.48-0.21,0.93-0.57,1.23l-9.17,7.6l-10.33,8.54c-0.28,0.23-0.44,0.58-0.44,0.95v19.78
					c0,0.74,0.82,1.15,1.38,0.69l51.73-42.76c0.43-0.36,1.04-0.36,1.47,0l51.61,42.66c0.56,0.46,1.38,0.05,1.38-0.69V117
					c0-0.37-0.16-0.72-0.44-0.95l-8.16-6.74l-11.37-9.37c-0.36-0.3-0.57-0.75-0.57-1.23v-16.6c0-0.67-0.53-1.22-1.18-1.22h-13.41
					c-0.65,0-1.18,0.55-1.18,1.22v3.77c0,0.21-0.23,0.32-0.39,0.19l-7.84-6.48c-0.28-0.23-0.44-0.58-0.44-0.95v-2.96
					c0-0.34,0.27-0.62,0.6-0.62h28.23c1.14,0,2.07,0.96,2.07,2.15v13.57c0,0.67,0.53,1.22,1.18,1.22h13.71
					c0.65,0,1.18-0.55,1.18-1.22V61.88c0-0.78-0.61-1.42-1.37-1.42h-44.98C839.57,60.46,839.3,60.18,839.3,59.82z"/>
				<path class="st0" d="M822.63,117.33h-10.22c-0.26,0-0.5,0.09-0.7,0.25l-1.95,1.6l-15.82,13.15c-0.67,0.55-0.29,1.66,0.57,1.66
					h48.58c0.41,0,0.62,0.52,0.32,0.81l-5.26,5.34c-0.24,0.24-0.57,0.38-0.91,0.38h-26.82c-0.71,0-1.29,0.59-1.29,1.33v15.41
					c0,0.64,0.51,1.16,1.13,1.16h29.96c0.3,0,0.59-0.12,0.8-0.34l13.88-14.33l10.9-11.25c0.44-0.46,0.4-1.21-0.09-1.62l-15.91-13.15
					c-0.32-0.27-0.72-0.41-1.14-0.41h-5.34"/>
				<path class="st0" d="M819.02,114.63l16.91,14.02l9.46-11.02l-14.95-12.4c-0.63-0.52-1.53-0.52-2.16,0l-9.26,7.68
					C818.49,113.35,818.49,114.18,819.02,114.63z"/>
			</g>
			<path class="st0" d="M341.59,158.38h35.62c0.81,0,1.47-0.69,1.47-1.53V141.5c0-0.85-0.66-1.53-1.47-1.53h-15.86
				c-0.63,0-1.07-0.66-0.85-1.28l18.64-53.61c0.35-1-0.36-2.06-1.38-2.06h-11.2c-0.39,0-0.67-0.41-0.53-0.8L380.73,40
				c0.35-1-0.36-2.06-1.38-2.06h-18.94c-0.62,0-1.17,0.4-1.38,1.01l-22.58,64.91c-0.35,1,0.36,2.06,1.38,2.06h13.18
				c0.46,0,0.78,0.48,0.62,0.93l-11.43,32.85c-0.06,0.17-0.09,0.35-0.09,0.53l0.01,16.61C340.13,157.7,340.78,158.38,341.59,158.38z
				"/>
		</g>
	</g>
	<g>
		<g>
			<path class="st0" d="M672.72,189.03l0,27.26c0,0.06,0.04,0.1,0.1,0.1h5.45c0.06,0,0.1-0.04,0.1-0.1v-21.85
				c0-0.06,0.04-0.1,0.1-0.1h11.99c1.81,0,3.27,1.46,3.27,3.27v18.68c0,0.06,0.04,0.1,0.1,0.1h5.45c0.06,0,0.1-0.04,0.1-0.1v-22.01
				c0-3.35-2.72-6.07-6.07-6.07h-19.77C673.09,188.21,672.72,188.58,672.72,189.03z"/>
			<path class="st0" d="M605.07,212.1v3.49c0,0.44,0.35,0.79,0.79,0.79h25.74c0.44,0,0.79-0.35,0.79-0.79v-3.05
				c0-0.44-0.35-0.79-0.79-0.79h-17.11c-0.4,0-0.6-0.48-0.31-0.76l17.98-17.86c0.15-0.15,0.23-0.35,0.23-0.56V189
				c0-0.44-0.35-0.79-0.79-0.79h-25.74c-0.44,0-0.79,0.35-0.79,0.79v3.05c0,0.44,0.35,0.79,0.79,0.79h16.35
				c0.71,0,1.06,0.85,0.56,1.35l-17.46,17.35C605.16,211.69,605.07,211.89,605.07,212.1z"/>
			<path class="st0" d="M707.04,189.26v26.07c0,0.58,0.47,1.05,1.05,1.05h25.22c0.58,0,1.05-0.47,1.05-1.05v-2.53
				c0-0.58-0.47-1.05-1.05-1.05h-19.56c-0.58,0-1.05-0.47-1.05-1.05v-16.81c0-0.58,0.47-1.05,1.05-1.05h13.74
				c0.46,0,0.83,0.37,0.83,0.83v1.07c0,0.32-0.16,0.62-0.42,0.81l-9.82,6.99c-0.47,0.34-0.58,0.99-0.25,1.47l2.29,3.21
				c0.34,0.47,0.99,0.58,1.47,0.25l11.96-8.52c0.51-0.36,0.82-0.95,0.82-1.58v-8.11c0-0.58-0.47-1.05-1.05-1.05h-25.22
				C707.51,188.21,707.04,188.68,707.04,189.26z"/>
			<path class="st0" d="M658.45,188.21h-11.79c-4.13,0-7.5,3.38-7.5,7.5v13.18c0,4.13,3.38,7.5,7.5,7.5h11.79
				c4.13,0,7.5-3.38,7.5-7.5v-13.18C665.95,191.59,662.58,188.21,658.45,188.21z M660.29,207.59c0,1.75-1.43,3.18-3.18,3.18H648
				c-1.75,0-3.18-1.43-3.18-3.18v-10.58c0-1.75,1.43-3.18,3.18-3.18h9.11c1.75,0,3.18,1.43,3.18,3.18V207.59z"/>
		</g>
		<g>
			<path class="st0" d="M762.73,212.1v3.49c0,0.44,0.35,0.79,0.79,0.79h25.74c0.44,0,0.79-0.35,0.79-0.79v-3.05
				c0-0.44-0.35-0.79-0.79-0.79h-17.11c-0.4,0-0.6-0.48-0.31-0.76l17.98-17.86c0.15-0.15,0.23-0.35,0.23-0.56V189
				c0-0.44-0.35-0.79-0.79-0.79h-25.74c-0.44,0-0.79,0.35-0.79,0.79v3.05c0,0.44,0.35,0.79,0.79,0.79h16.35
				c0.71,0,1.06,0.85,0.56,1.35l-17.46,17.35C762.81,211.69,762.73,211.89,762.73,212.1z"/>
			<path class="st0" d="M798.54,189.26v26.07c0,0.58,0.47,1.05,1.05,1.05h25.22c0.58,0,1.05-0.47,1.05-1.05v-2.53
				c0-0.58-0.47-1.05-1.05-1.05h-19.56c-0.58,0-1.05-0.47-1.05-1.05v-16.81c0-0.58,0.47-1.05,1.05-1.05h13.74
				c0.46,0,0.83,0.37,0.83,0.83v1.07c0,0.32-0.16,0.62-0.42,0.81l-9.82,6.99c-0.47,0.34-0.58,0.99-0.25,1.47l2.29,3.21
				c0.34,0.47,0.99,0.58,1.47,0.25l11.96-8.52c0.51-0.36,0.82-0.95,0.82-1.58v-8.11c0-0.58-0.47-1.05-1.05-1.05H799.6
				C799.01,188.21,798.54,188.68,798.54,189.26z"/>
			<path class="st0" d="M879.9,188.21h-11.79c-4.13,0-7.5,3.38-7.5,7.5v13.18c0,4.13,3.38,7.5,7.5,7.5h11.79
				c4.13,0,7.5-3.38,7.5-7.5v-13.18C887.4,191.59,884.03,188.21,879.9,188.21z M881.74,207.59c0,1.75-1.43,3.18-3.18,3.18h-9.11
				c-1.75,0-3.18-1.43-3.18-3.18v-10.58c0-1.75,1.43-3.18,3.18-3.18h9.11c1.75,0,3.18,1.43,3.18,3.18V207.59z"/>
			<path class="st0" d="M853.64,188.21h-11.24c-3.93,0-7.11,3.18-7.11,7.11v21.07h5.95V197.2c0-2.17,1.78-3.95,3.95-3.95h8.45
				V188.21z"/>
		</g>
		<g>
			<path class="st0" d="M408.92,189.03l0,27.26c0,0.06,0.04,0.1,0.1,0.1h5.45c0.06,0,0.1-0.04,0.1-0.1v-21.85
				c0-0.06,0.04-0.1,0.1-0.1h11.99c1.81,0,3.27,1.46,3.27,3.27v18.68c0,0.06,0.04,0.1,0.1,0.1h5.45c0.06,0,0.1-0.04,0.1-0.1v-22.01
				c0-3.35-2.72-6.07-6.07-6.07h-19.77C409.29,188.21,408.92,188.58,408.92,189.03z"/>
			<path class="st0" d="M336.36,212.1v3.49c0,0.44,0.35,0.79,0.79,0.79h25.74c0.44,0,0.79-0.35,0.79-0.79v-3.05
				c0-0.44-0.35-0.79-0.79-0.79h-17.11c-0.4,0-0.6-0.48-0.31-0.76l17.98-17.86c0.15-0.15,0.23-0.35,0.23-0.56V189
				c0-0.44-0.35-0.79-0.79-0.79h-25.74c-0.44,0-0.79,0.35-0.79,0.79v3.05c0,0.44,0.35,0.79,0.79,0.79h16.35
				c0.71,0,1.06,0.85,0.56,1.35l-17.46,17.35C336.45,211.69,336.36,211.89,336.36,212.1z"/>
			<path class="st0" d="M372.48,189.26v26.07c0,0.58,0.47,1.05,1.05,1.05h25.22c0.58,0,1.05-0.47,1.05-1.05v-2.53
				c0-0.58-0.47-1.05-1.05-1.05h-19.56c-0.58,0-1.05-0.47-1.05-1.05v-16.81c0-0.58,0.47-1.05,1.05-1.05h13.74
				c0.46,0,0.83,0.37,0.83,0.83v1.07c0,0.32-0.16,0.62-0.42,0.81l-9.82,6.99c-0.47,0.34-0.58,0.99-0.25,1.47l2.29,3.21
				c0.34,0.47,0.99,0.58,1.47,0.25l11.96-8.52c0.51-0.36,0.82-0.95,0.82-1.58v-8.11c0-0.58-0.47-1.05-1.05-1.05h-25.22
				C372.95,188.21,372.48,188.68,372.48,189.26z"/>
			<path class="st0" d="M543.88,192.7v-3.21c0-0.49-0.4-0.89-0.89-0.89h-24.8c-0.49,0-0.89,0.4-0.89,0.89v14.62
				c0,0.49,0.4,0.89,0.89,0.89h19.3c0.49,0,0.89,0.4,0.89,0.89v4.64c0,0.49-0.4,0.89-0.89,0.89h-19.3c-0.49,0-0.89,0.4-0.89,0.89
				v3.21c0,0.49,0.4,0.89,0.89,0.89H543c0.49,0,0.89-0.4,0.89-0.89v-14.62c0-0.49-0.4-0.89-0.89-0.89h-19.3
				c-0.49,0-0.89-0.4-0.89-0.89v-4.64c0-0.49,0.4-0.89,0.89-0.89H543C543.49,193.59,543.88,193.19,543.88,192.7z"/>
			<path class="st0" d="M580,192.7v-3.21c0-0.49-0.4-0.89-0.89-0.89h-24.8c-0.49,0-0.89,0.4-0.89,0.89v14.62
				c0,0.49,0.4,0.89,0.89,0.89h19.3c0.49,0,0.89,0.4,0.89,0.89v4.64c0,0.49-0.4,0.89-0.89,0.89h-19.3c-0.49,0-0.89,0.4-0.89,0.89
				v3.21c0,0.49,0.4,0.89,0.89,0.89h24.8c0.49,0,0.89-0.4,0.89-0.89v-14.62c0-0.49-0.4-0.89-0.89-0.89h-19.3
				c-0.49,0-0.89-0.4-0.89-0.89v-4.64c0-0.49,0.4-0.89,0.89-0.89h19.3C579.6,193.59,580,193.19,580,192.7z"/>
			<path class="st0" d="M450.71,209.92v-20.71c0-0.45-0.37-0.82-0.82-0.82h-4c-0.45,0-0.82,0.37-0.82,0.82v25.7
				c0,0.72,0.58,1.3,1.3,1.3h24.46c0.45,0,0.82-0.37,0.82-0.82v-3.35c0-0.45-0.37-0.82-0.82-0.82h-18.83
				C451.29,211.22,450.71,210.64,450.71,209.92z"/>
			<path class="st0" d="M480.82,189.26v26.07c0,0.58,0.47,1.05,1.05,1.05h25.22c0.58,0,1.05-0.47,1.05-1.05v-2.53
				c0-0.58-0.47-1.05-1.05-1.05h-19.56c-0.58,0-1.05-0.47-1.05-1.05v-16.81c0-0.58,0.47-1.05,1.05-1.05h13.74
				c0.46,0,0.83,0.37,0.83,0.83v1.07c0,0.32-0.16,0.62-0.42,0.81l-9.82,6.99c-0.47,0.34-0.58,0.99-0.25,1.47l2.29,3.21
				c0.34,0.47,0.99,0.58,1.47,0.25l11.96-8.52c0.51-0.36,0.82-0.95,0.82-1.58v-8.11c0-0.58-0.47-1.05-1.05-1.05h-25.22
				C481.29,188.21,480.82,188.68,480.82,189.26z"/>
		</g>
	</g>
	<g>
		<path class="st0" d="M239.81,151.37L222.11,153c-1.13,0.1-1.95-1.07-1.46-2.09l13.69-28.59c0.5-1.05,0.63-2.24,0.35-3.37
			l-10.38-42.15c-0.47-1.91-2.22-3.21-4.18-3.12l-26.68,1.24c-1.21,0.06-1.98-1.27-1.33-2.3l22.9-35.93
			c0.63-0.99,0.83-2.2,0.56-3.34l-7.42-30.74c-0.37-1.52-1.73-2.59-3.3-2.59L30.66,0.28c-2.54,0-4.82,1.58-5.72,3.96L0.54,68.55
			c-0.48,1.27-0.64,2.64-0.48,3.98l5.01,39.98c0.09,0.75,0.77,1.3,1.53,1.23l18.89-1.76c0.78-0.07,1.36,0.71,1.06,1.44L11.7,148.96
			c-0.56,1.33-0.74,2.79-0.53,4.22l5.56,37.28c0.15,1.03,1.09,1.77,2.13,1.68l20.81-1.81c0.84-0.07,1.42,0.81,1.03,1.55L23,225.56
			c-0.44,0.84-0.61,1.79-0.48,2.73l5.77,42.02c0.21,1.5,1.59,2.55,3.09,2.35l167.25-22.72c0.67-0.09,1.3-0.36,1.83-0.77l53.41-41.96
			c1.68-1.32,2.41-3.5,1.88-5.57l-12.37-47.76C242.96,152.28,241.45,151.22,239.81,151.37z"/>
		<g>
			<path d="M234.87,163.28l7.34,31.97l-66,7.04l-17.28,1.93l-69.39,7.75l-15.6,1.74l-6.13-36.89l35.77-55.02l-44.44,2.89l-5.7-34.27
				l35.87-50.38l-44.09,0.96l-5.02-30.21l157.45-1l5.3,22.17l-88.54,142.16l38.04-3.55l30.3-53.94l-24.02,1.56L181,85.91l34.45-1.66
				l7.86,32.87l-24.26,49.47L234.87,163.28z M134.11,39.09l-34.1,50.72l25.43-1.22l32.55-50.02L134.11,39.09"/>
		</g>
	</g>
</g>
</svg>
